<?xml version="1.0" encoding="UTF-8" standalone="no"?>
<svg
   xmlns:dc="http://purl.org/dc/elements/1.1/"
   xmlns:cc="http://creativecommons.org/ns#"
   xmlns:rdf="http://www.w3.org/1999/02/22-rdf-syntax-ns#"
   xmlns:svg="http://www.w3.org/2000/svg"
   xmlns="http://www.w3.org/2000/svg"
   xmlns:sodipodi="http://sodipodi.sourceforge.net/DTD/sodipodi-0.dtd"
   xmlns:inkscape="http://www.inkscape.org/namespaces/inkscape"
   inkscape:version="1.1-dev (977be01, 2020-02-27)"
   sodipodi:docname="vectormath3.svg"
   id="svg238"
   version="1.1"
   overflow="hidden"
   height="231"
   width="498">
  <metadata
     id="metadata242">
    <rdf:RDF>
      <cc:Work
         rdf:about="">
        <dc:format>image/svg+xml</dc:format>
        <dc:type
           rdf:resource="http://purl.org/dc/dcmitype/StillImage" />
      </cc:Work>
    </rdf:RDF>
  </metadata>
  <sodipodi:namedview
     inkscape:current-layer="svg238"
     inkscape:window-maximized="0"
     inkscape:window-y="0"
     inkscape:window-x="0"
     inkscape:cy="230"
     inkscape:cx="418"
     inkscape:zoom="0.38125"
     showgrid="false"
     id="namedview240"
     inkscape:window-height="480"
     inkscape:window-width="689"
     inkscape:pageshadow="2"
     inkscape:pageopacity="0"
     guidetolerance="10"
     gridtolerance="10"
     objecttolerance="10"
     borderopacity="1"
     bordercolor="#666666"
     pagecolor="#ffffff" />
  <defs
     id="defs206" />
  <g
     id="g271">
    <rect
       id="rect210"
       fill="#f2f2f2"
       stroke-miterlimit="8"
       stroke="#000000"
       height="230"
       width="497"
       y="0.5"
       x="0.5" />
    <text
       id="text214"
       font-size="24px"
       font-weight="400"
       font-family="Calibri, Calibri_MSFontService, sans-serif"
       x="81.53299"
       y="217">direction_<tspan
   id="tspan212"
   y="217"
   x="180.7197">vec before normalization</tspan></text>
    <path
       inkscape:connector-curvature="0"
       id="path216"
       fill-rule="evenodd"
       fill="#4472c4"
       stroke-miterlimit="8"
       stroke="#2f528f"
       d="m 164.5,101 c 0,-22.367 18.356,-40.5 41,-40.5 22.644,0 41,18.133 41,40.5 0,22.368 -18.356,40.5 -41,40.5 -22.644,0 -41,-18.132 -41,-40.5 z" />
    <path
       inkscape:connector-curvature="0"
       id="path218"
       fill-rule="evenodd"
       fill="none"
       stroke-miterlimit="8"
       stroke="#4472c4"
       d="m 423.767,194.5 -337.267,8e-5" />
    <path
       inkscape:connector-curvature="0"
       id="path220"
       fill="#7f7f7f"
       d="m 205.622,101.015 0.97,0.244 -0.244,0.97 -0.97,-0.244 z m 1.94,0.489 0.969,0.244 -0.244,0.969 -0.97,-0.244 z m 1.939,0.488 0.97,0.244 -0.244,0.97 -0.97,-0.244 z m 1.94,0.488 0.969,0.245 -0.244,0.969 -0.97,-0.244 z m 1.939,0.489 0.97,0.244 -0.245,0.97 -0.969,-0.245 z m 1.939,0.488 0.97,0.244 -0.244,0.97 -0.97,-0.244 z m 1.94,0.489 0.97,0.244 -0.245,0.969 -0.969,-0.244 z m 1.939,0.488 0.97,0.244 -0.244,0.97 -0.97,-0.244 z m 1.94,0.488 0.969,0.245 -0.244,0.969 -0.969,-0.244 z m 1.939,0.489 0.97,0.244 -0.244,0.97 -0.97,-0.245 z m 1.94,0.488 0.969,0.244 -0.244,0.97 -0.97,-0.244 z m 1.939,0.489 0.97,0.244 -0.244,0.969 -0.97,-0.244 z m 1.94,0.488 0.969,0.244 -0.244,0.97 -0.97,-0.244 z m 1.939,0.488 0.97,0.245 -0.244,0.969 -0.97,-0.244 z m 1.939,0.489 0.97,0.244 -0.244,0.97 -0.97,-0.245 z m 1.94,0.488 0.97,0.244 -0.245,0.97 -0.969,-0.244 z m 1.939,0.488 0.97,0.245 -0.244,0.969 -0.97,-0.244 z m 1.94,0.489 0.97,0.244 -0.245,0.97 -0.969,-0.244 z m 1.939,0.488 0.97,0.244 -0.244,0.97 -0.97,-0.244 z m 1.94,0.489 0.969,0.244 -0.244,0.97 -0.969,-0.245 z m 1.939,0.488 0.97,0.244 -0.244,0.97 -0.97,-0.244 z m 1.94,0.488 0.969,0.245 -0.244,0.969 -0.97,-0.244 z m 1.939,0.489 0.97,0.244 -0.244,0.97 -0.97,-0.244 z m 1.94,0.488 0.969,0.244 -0.244,0.97 -0.97,-0.244 z m 1.939,0.489 0.97,0.244 -0.244,0.97 -0.97,-0.245 z m 1.939,0.488 0.97,0.244 -0.244,0.97 -0.97,-0.244 z m 1.94,0.488 0.97,0.245 -0.245,0.969 -0.969,-0.244 z m 1.939,0.489 0.97,0.244 -0.244,0.97 -0.97,-0.244 z m 1.94,0.488 0.969,0.244 -0.244,0.97 -0.969,-0.244 z m 1.939,0.489 0.97,0.244 -0.244,0.97 -0.97,-0.245 z m 1.94,0.488 0.969,0.244 -0.244,0.97 -0.97,-0.244 z m 1.939,0.488 0.97,0.245 -0.244,0.969 -0.97,-0.244 z m 1.94,0.489 0.969,0.244 -0.244,0.97 -0.97,-0.244 z m 1.939,0.488 0.97,0.244 -0.244,0.97 -0.97,-0.244 z m 1.939,0.489 0.97,0.244 -0.244,0.97 -0.97,-0.245 z m 1.94,0.488 0.97,0.244 -0.245,0.97 -0.969,-0.244 z m 1.939,0.488 0.97,0.245 -0.244,0.969 -0.97,-0.244 z m 1.94,0.489 0.97,0.244 -0.245,0.97 -0.969,-0.245 z m 1.939,0.488 0.97,0.244 -0.244,0.97 -0.97,-0.244 z m 1.94,0.489 0.969,0.244 -0.244,0.969 -0.969,-0.244 z m 1.939,0.488 0.97,0.244 -0.244,0.97 -0.97,-0.244 z m 1.94,0.488 0.969,0.245 -0.244,0.969 -0.97,-0.244 z m 1.939,0.489 0.97,0.244 -0.244,0.97 -0.97,-0.245 z m 1.939,0.488 0.97,0.244 -0.244,0.97 -0.97,-0.244 z m 1.94,0.489 0.97,0.244 -0.245,0.969 -0.969,-0.244 z m 1.939,0.488 0.97,0.244 -0.244,0.97 -0.97,-0.244 z m 1.94,0.488 0.97,0.245 -0.245,0.969 -0.969,-0.244 z m 1.939,0.489 0.97,0.244 -0.244,0.97 -0.97,-0.245 z m 1.94,0.488 0.969,0.244 -0.244,0.97 -0.969,-0.244 z m 1.939,0.489 0.97,0.244 -0.244,0.969 -0.97,-0.244 z m 1.94,0.488 0.969,0.244 -0.244,0.97 -0.97,-0.244 z m 1.939,0.488 0.97,0.244 -0.244,0.97 -0.97,-0.244 z m 1.94,0.489 0.969,0.244 -0.244,0.97 -0.97,-0.245 z m 1.939,0.488 0.97,0.244 -0.244,0.97 -0.97,-0.244 z m 1.939,0.488 0.97,0.245 -0.244,0.969 -0.97,-0.244 z m 1.94,0.489 0.97,0.244 -0.245,0.97 -0.969,-0.244 z m 1.939,0.488 0.97,0.244 -0.244,0.97 -0.97,-0.244 z m 1.94,0.489 0.97,0.244 -0.245,0.97 -0.969,-0.245 z m 1.939,0.488 0.97,0.244 -0.244,0.97 -0.97,-0.244 z m 1.94,0.488 0.969,0.245 -0.244,0.969 -0.969,-0.244 z m 1.939,0.489 0.97,0.244 -0.244,0.97 -0.97,-0.244 z m 1.94,0.488 0.969,0.244 -0.244,0.97 -0.97,-0.244 z m 1.939,0.489 0.97,0.244 -0.244,0.97 -0.97,-0.245 z m 1.94,0.488 0.969,0.244 -0.244,0.97 -0.97,-0.244 z m 1.939,0.488 0.97,0.245 -0.244,0.969 -0.97,-0.244 z m 1.939,0.489 0.97,0.244 -0.244,0.97 -0.97,-0.244 z m 1.94,0.488 0.97,0.244 -0.245,0.97 -0.969,-0.244 z m 1.939,0.489 0.038,0.009 -0.244,0.97 -0.038,-0.01 z m -0.4,-3.71 6.781,5.832 -8.734,1.925 z" />
    <path
       inkscape:connector-curvature="0"
       id="path222"
       fill="#4472c4"
       d="m 262.95554,194.55311 28.85426,-63.77321 -0.9111,-0.4122 -28.85424,63.77319 z M 294.449,133.4375 294.1024,124.5 l -6.9421,5.6398 z" />
    <path
       inkscape:connector-curvature="0"
       id="path224"
       d="m 205.622,101.015 32.811,8.283 -0.245,0.97 -32.81,-8.283 z m 32.375,4.563 6.778,5.836 -8.736,1.921 z" />
    <path
       inkscape:connector-curvature="0"
       id="path226"
       fill-rule="evenodd"
       fill="none"
       stroke-miterlimit="8"
       stroke="#000000"
       d="m 164.5,101.5 c 0,-4.418 0.597,-8 1.333,-8 h 17.834 c 0.736,0 1.333,-3.582 1.333,-8 0,4.418 0.597,8 1.333,8 h 17.834 c 0.736,0 1.333,3.582 1.333,8" />
    <text
       id="text228"
       font-size="16px"
       font-weight="400"
       font-family="Calibri, Calibri_MSFontService, sans-serif"
       x="166.70099"
       y="77">r = 1</text>
    <path
       inkscape:connector-curvature="0"
       id="path230"
       fill="#843c0c"
       d="m 284.49423,30.17478 -60.03794,70.10821 0.7596,0.6505 60.03788,-70.10827 z m -61.82914,66.81901 -2.1654,8.6782 8.2418,-3.47459 z" />
    <text
       id="text232"
       font-size="24px"
       font-weight="400"
       font-family="Calibri, Calibri_MSFontService, sans-serif"
       x="108.80899"
       y="23">direction_vec afer normalization</text>
    <path
       inkscape:connector-curvature="0"
       id="path234"
       fill-rule="evenodd"
       fill="none"
       stroke-miterlimit="8"
       stroke="#843c0c"
       d="M 112.5,30.5 H 437.021" />
  </g>
</svg>
