<?xml version="1.0" encoding="UTF-8" standalone="no"?>
<svg
   xmlns:dc="http://purl.org/dc/elements/1.1/"
   xmlns:cc="http://creativecommons.org/ns#"
   xmlns:rdf="http://www.w3.org/1999/02/22-rdf-syntax-ns#"
   xmlns:svg="http://www.w3.org/2000/svg"
   xmlns="http://www.w3.org/2000/svg"
   xmlns:sodipodi="http://sodipodi.sourceforge.net/DTD/sodipodi-0.dtd"
   xmlns:inkscape="http://www.inkscape.org/namespaces/inkscape"
   inkscape:version="1.1-dev (977be01, 2020-02-27)"
   sodipodi:docname="vectormath4.svg"
   id="svg369"
   version="1.1"
   overflow="hidden"
   height="231"
   width="498">
  <metadata
     id="metadata373">
    <rdf:RDF>
      <cc:Work
         rdf:about="">
        <dc:format>image/svg+xml</dc:format>
        <dc:type
           rdf:resource="http://purl.org/dc/dcmitype/StillImage" />
      </cc:Work>
    </rdf:RDF>
  </metadata>
  <sodipodi:namedview
     inkscape:current-layer="svg369"
     inkscape:window-maximized="0"
     inkscape:window-y="0"
     inkscape:window-x="0"
     inkscape:cy="230"
     inkscape:cx="418"
     inkscape:zoom="0.38125"
     showgrid="false"
     id="namedview371"
     inkscape:window-height="480"
     inkscape:window-width="689"
     inkscape:pageshadow="2"
     inkscape:pageopacity="0"
     guidetolerance="10"
     gridtolerance="10"
     objecttolerance="10"
     borderopacity="1"
     bordercolor="#666666"
     pagecolor="#ffffff" />
  <defs
     id="defs327" />
  <rect
     x="0.5"
     y="0.5"
     width="497"
     height="230"
     stroke="#000000"
     stroke-miterlimit="8"
     fill="#f2f2f2"
     id="rect331" />
  <path
     d="m 0.849,0.142 124.69,121.318 -0.698,0.717 L 0.151,0.858 Z m 126.174,117.88 2.945,8.446 -8.523,-2.712 z"
     fill="#767171"
     id="path333"
     inkscape:connector-curvature="0" />
  <text
     y="61"
     x="217.12799"
     font-family="Calibri, Calibri_MSFontService, sans-serif"
     font-weight="400"
     font-size="24px"
     id="text335">position_vec</text>
  <path
     d="m 208.22946,72.05737 -54.06026,28.40093 0.4651,0.8852 54.06024,-28.40087 z m -54.50766,24.68233 -5.2218,7.26169 8.9425,-0.17959 z"
     fill="#4472c4"
     id="path337"
     inkscape:connector-curvature="0" />
  <path
     d="m 208.5,72.5 146.642,-1e-4"
     stroke="#4472c4"
     stroke-miterlimit="8"
     fill="none"
     fill-rule="evenodd"
     id="path339"
     inkscape:connector-curvature="0" />
  <path
     d="m 129.622,125.015 2.909,0.735 -0.245,0.969 -2.908,-0.734 z m 3.879,0.979 2.909,0.735 -0.245,0.969 -2.909,-0.734 z m 3.878,0.979 2.909,0.735 -0.245,0.969 -2.909,-0.734 z m 3.878,0.979 2.909,0.735 -0.245,0.969 -2.908,-0.734 z m 3.879,0.979 2.909,0.735 -0.245,0.969 -2.909,-0.734 z m 3.878,0.979 2.909,0.735 -0.245,0.969 -2.909,-0.734 z m 3.878,0.98 2.909,0.734 -0.245,0.969 -2.908,-0.734 z m 3.879,0.979 2.909,0.734 -0.245,0.969 -2.909,-0.734 z m 3.878,0.979 1.784,0.45 -0.245,0.97 -1.784,-0.451 z m 1.348,-3.27 6.778,5.836 -8.736,1.921 z"
     fill="#767171"
     id="path341"
     inkscape:connector-curvature="0" />
  <path
     d="M 0.786,0.09 203.332,141.163 202.76,141.984 0.214,0.91 Z m 203.452,137.439 4.279,7.855 -8.851,-1.29 z"
     id="path343"
     inkscape:connector-curvature="0" />
  <path
     d="m 169.622,135.015 32.811,8.283 -0.245,0.97 -32.81,-8.283 z m 32.375,4.563 6.778,5.836 -8.736,1.921 z"
     id="path345"
     inkscape:connector-curvature="0" />
  <path
     d="m 207.37495,72.024 -94.68115,30.44339 0.3061,0.952 94.68115,-30.44339 z m -94.48315,26.70329 -6.3918,6.2568 8.8406,1.3592 z"
     fill="#4472c4"
     id="path347"
     inkscape:connector-curvature="0" />
  <path
     d="M 0.757,0.071 262.78,156.974 262.266,157.831 0.243,0.929 Z m 262.678,153.215 4.808,7.542 -8.918,-0.679 z"
     fill="#a9d18e"
     id="path349"
     inkscape:connector-curvature="0" />
  <path
     d="m 208.622,145.015 2.909,0.735 -0.245,0.969 -2.908,-0.734 z m 3.879,0.979 2.909,0.735 -0.245,0.969 -2.909,-0.734 z m 3.878,0.979 2.909,0.735 -0.245,0.969 -2.909,-0.734 z m 3.878,0.979 2.909,0.735 -0.245,0.969 -2.908,-0.734 z m 3.879,0.979 2.909,0.735 -0.245,0.969 -2.909,-0.734 z m 3.878,0.979 2.909,0.735 -0.245,0.969 -2.909,-0.734 z m 3.878,0.98 2.909,0.734 -0.245,0.969 -2.908,-0.734 z m 3.879,0.979 2.909,0.734 -0.245,0.969 -2.909,-0.734 z m 3.878,0.979 1.784,0.45 -0.245,0.97 -1.784,-0.451 z m 1.348,-3.27 6.778,5.836 -8.736,1.921 z"
     fill="#d0cece"
     id="path351"
     inkscape:connector-curvature="0" />
  <path
     d="m 0.812,0.11 163.537,130.805 -0.625,0.781 L 0.188,0.891 Z m 164.682,127.239 3.748,8.12 -8.745,-1.873 z"
     fill="#767171"
     id="path353"
     inkscape:connector-curvature="0" />
  <text
     y="183"
     x="16.274002"
     font-family="Calibri, Calibri_MSFontService, sans-serif"
     font-weight="400"
     font-size="24px"
     id="text355">direction_vec</text>
  <path
     d="M 19.5,199.5 H 148.339"
     stroke="#4472c4"
     stroke-miterlimit="8"
     fill="none"
     fill-rule="evenodd"
     id="path357"
     inkscape:connector-curvature="0" />
  <path
     d="m 148.92822,200.48312 32.55848,-54.01522 -0.8565,-0.5162 -32.55842,54.01518 z m 34.86768,-51.06642 0.7041,-8.9165 -7.5557,4.7866 z"
     fill="#4472c4"
     id="path359"
     inkscape:connector-curvature="0" />
  <text
     y="130"
     x="343.59998"
     font-family="Calibri, Calibri_MSFontService, sans-serif"
     font-weight="400"
     font-size="24px"
     id="text361">target_vec</text>
  <path
     d="m 452,140.5 -105.5,1e-4"
     stroke="#4472c4"
     stroke-miterlimit="8"
     fill="none"
     fill-rule="evenodd"
     id="path363"
     inkscape:connector-curvature="0" />
  <path
     d="m 347.99208,140.00006 -103.83408,1.64425 0.016,0.99987 103.83392,-1.64424 z m -102.55608,-1.87642 -7.936,4.12617 8.062,3.87283 z"
     fill="#4472c4"
     id="path365"
     inkscape:connector-curvature="0" />
</svg>
