<?xml version="1.0" encoding="UTF-8" standalone="no"?>
<svg
   xmlns:dc="http://purl.org/dc/elements/1.1/"
   xmlns:cc="http://creativecommons.org/ns#"
   xmlns:rdf="http://www.w3.org/1999/02/22-rdf-syntax-ns#"
   xmlns:svg="http://www.w3.org/2000/svg"
   xmlns="http://www.w3.org/2000/svg"
   xmlns:sodipodi="http://sodipodi.sourceforge.net/DTD/sodipodi-0.dtd"
   xmlns:inkscape="http://www.inkscape.org/namespaces/inkscape"
   inkscape:version="1.1-dev (977be01, 2020-02-27)"
   sodipodi:docname="vectormath2.svg"
   id="svg49"
   version="1.1"
   overflow="hidden"
   height="231"
   width="498">
  <metadata
     id="metadata53">
    <rdf:RDF>
      <cc:Work
         rdf:about="">
        <dc:format>image/svg+xml</dc:format>
        <dc:type
           rdf:resource="http://purl.org/dc/dcmitype/StillImage" />
      </cc:Work>
    </rdf:RDF>
  </metadata>
  <sodipodi:namedview
     inkscape:current-layer="svg49"
     inkscape:window-maximized="0"
     inkscape:window-y="0"
     inkscape:window-x="0"
     inkscape:cy="87.116279"
     inkscape:cx="418"
     inkscape:zoom="0.83984375"
     showgrid="false"
     id="namedview51"
     inkscape:window-height="660"
     inkscape:window-width="1120"
     inkscape:pageshadow="2"
     inkscape:pageopacity="0"
     guidetolerance="10"
     gridtolerance="10"
     objecttolerance="10"
     borderopacity="1"
     bordercolor="#666666"
     pagecolor="#ffffff" />
  <defs
     id="defs13" />
  <rect
     x="0.5"
     y="0.5"
     width="497"
     height="230"
     stroke="#000000"
     stroke-miterlimit="8"
     fill="#f2f2f2"
     id="rect17" />
  <path
     d="m 86.5,25 c 0,-1.933 1.567,-3.5 3.5,-3.5 1.933,0 3.5,1.567 3.5,3.5 0,1.933 -1.567,3.5 -3.5,3.5 -1.933,0 -3.5,-1.567 -3.5,-3.5 z"
     stroke="#2f528f"
     stroke-miterlimit="8"
     fill="#4472c4"
     fill-rule="evenodd"
     id="path19"
     inkscape:connector-curvature="0" />
  <path
     d="m 149,101.5 -141.5,9e-5"
     stroke="#4472c4"
     stroke-miterlimit="8"
     fill="none"
     fill-rule="evenodd"
     id="path21"
     inkscape:connector-curvature="0" />
  <path
     d="M 90.757,25.071 352.78,181.974 352.266,182.831 90.243,25.929 Z m 262.678,153.215 4.808,7.542 -8.918,-0.679 z"
     id="path23"
     inkscape:connector-curvature="0" />
  <path
     d="m 90.849,25.142 124.69,121.318 -0.698,0.717 L 90.151,25.858 Z m 126.174,117.88 2.945,8.446 -8.523,-2.712 z"
     id="path25"
     inkscape:connector-curvature="0" />
  <text
     y="64"
     x="243.16"
     font-family="Calibri, Calibri_MSFontService, sans-serif"
     font-weight="400"
     font-size="24px"
     id="text27">position_vec</text>
  <path
     d="m 234.0499,75.05154 -54.7911,27.01396 0.4422,0.8969 54.7911,-27.01394 z m -55.1429,23.28516 -5.4065,7.12529 8.9441,0.05 z"
     fill="#4472c4"
     id="path29"
     inkscape:connector-curvature="0" />
  <path
     d="m 234.5,75.5 146.642,-1e-4"
     stroke="#4472c4"
     stroke-miterlimit="8"
     fill="none"
     fill-rule="evenodd"
     id="path31"
     inkscape:connector-curvature="0" />
  <path
     d="m 90.622,25.015 129.981,32.732 -0.244,0.97 L 90.378,25.985 Z m 129.543,29.013 6.781,5.832 -8.734,1.925 z"
     id="path33"
     inkscape:connector-curvature="0" />
  <path
     d="m 148.9359,101.61193 26.4406,-47.05503 -0.8718,-0.4898 -26.4406,47.05496 z m 28.8388,-44.17803 0.4318,-8.9339 -7.4062,5.0149 z"
     fill="#4472c4"
     id="path35"
     inkscape:connector-curvature="0" />
  <text
     y="89"
     x="5.4689941"
     font-family="Calibri, Calibri_MSFontService, sans-serif"
     font-weight="400"
     font-size="24px"
     id="text37">direction_vec</text>
  <path
     d="m 347.0499,113.05154 -54.7911,27.01396 0.4422,0.8969 54.7911,-27.01394 z m -55.1429,23.28516 -5.4065,7.12529 8.9441,0.05 z"
     fill="#4472c4"
     id="path39"
     inkscape:connector-curvature="0" />
  <path
     d="m 346.5,113.5 146.642,-1e-4"
     stroke="#4472c4"
     stroke-miterlimit="8"
     fill="none"
     fill-rule="evenodd"
     id="path41"
     inkscape:connector-curvature="0" />
  <text
     y="101"
     x="355.146"
     font-family="Calibri, Calibri_MSFontService, sans-serif"
     font-weight="400"
     font-size="24px"
     id="text45">target_vec<tspan
   font-size="11px"
   x="62.600006"
   y="20"
   id="tspan43">(0, 0)</tspan></text>
</svg>
